<?xml version="1.0" encoding="UTF-8" standalone="no"?>
<!-- Created with Inkscape (http://www.inkscape.org/) -->

<svg
   xmlns:dc="http://purl.org/dc/elements/1.1/"
   xmlns:cc="http://creativecommons.org/ns#"
   xmlns:rdf="http://www.w3.org/1999/02/22-rdf-syntax-ns#"
   xmlns:svg="http://www.w3.org/2000/svg"
   xmlns="http://www.w3.org/2000/svg"
   xmlns:sodipodi="http://sodipodi.sourceforge.net/DTD/sodipodi-0.dtd"
   xmlns:inkscape="http://www.inkscape.org/namespaces/inkscape"
   width="744.09448819"
   height="1052.3622047"
   id="svg4940"
   version="1.1"
   inkscape:version="0.48.2 r9819"
   sodipodi:docname="1dInitialConfig.eps">
  <defs
     id="defs4942">
    <marker
       inkscape:stockid="StopL"
       orient="auto"
       refY="0.0"
       refX="0.0"
       id="StopL"
       style="overflow:visible">
      <path
         id="path3930"
         d="M 0.0,5.65 L 0.0,-5.65"
         style="fill:none;fill-opacity:0.75000000;fill-rule:evenodd;stroke:#000000;stroke-width:1.0pt"
         transform="scale(0.8)" />
    </marker>
    <inkscape:path-effect
       effect="skeletal"
       id="path-effect6142"
       is_visible="true"
       pattern="M 0,0 1,0"
       copytype="single_stretched"
       prop_scale="1"
       scale_y_rel="false"
       spacing="0"
       normal_offset="0"
       tang_offset="0"
       prop_units="false"
       vertical_pattern="false"
       fuse_tolerance="0"
       pattern-nodetypes="cc" />
    <inkscape:path-effect
       effect="construct_grid"
       id="path-effect6140"
       is_visible="true"
       nr_x="5"
       nr_y="5" />
    <marker
       inkscape:stockid="StopM"
       orient="auto"
       refY="0.0"
       refX="0.0"
       id="StopM"
       style="overflow:visible">
      <path
         id="path3933"
         d="M 0.0,5.65 L 0.0,-5.65"
         style="fill:none;fill-opacity:0.75000000;fill-rule:evenodd;stroke:#000000;stroke-width:1.0pt"
         transform="scale(0.4)" />
    </marker>
    <marker
       inkscape:stockid="Arrow2Mend"
       orient="auto"
       refY="0.0"
       refX="0.0"
       id="Arrow2Mend"
       style="overflow:visible;">
      <path
         id="path3787"
         style="font-size:12.0;fill-rule:evenodd;stroke-width:0.62500000;stroke-linejoin:round;"
         d="M 8.7185878,4.0337352 L -2.2072895,0.016013256 L 8.7185884,-4.0017078 C 6.9730900,-1.6296469 6.9831476,1.6157441 8.7185878,4.0337352 z "
         transform="scale(0.6) rotate(180) translate(0,0)" />
    </marker>
    <marker
       inkscape:stockid="Arrow2Mstart"
       orient="auto"
       refY="0.0"
       refX="0.0"
       id="Arrow2Mstart"
       style="overflow:visible">
      <path
         id="path3784"
         style="font-size:12.0;fill-rule:evenodd;stroke-width:0.62500000;stroke-linejoin:round"
         d="M 8.7185878,4.0337352 L -2.2072895,0.016013256 L 8.7185884,-4.0017078 C 6.9730900,-1.6296469 6.9831476,1.6157441 8.7185878,4.0337352 z "
         transform="scale(0.6) translate(0,0)" />
    </marker>
  </defs>
  <sodipodi:namedview
     id="base"
     pagecolor="#ffffff"
     bordercolor="#666666"
     borderopacity="1.0"
     inkscape:pageopacity="0.0"
     inkscape:pageshadow="2"
     inkscape:zoom="0.7"
     inkscape:cx="193.37193"
     inkscape:cy="894.34968"
     inkscape:document-units="px"
     inkscape:current-layer="layer1"
     showgrid="true"
     inkscape:window-width="1440"
     inkscape:window-height="852"
     inkscape:window-x="0"
     inkscape:window-y="0"
     inkscape:window-maximized="1">
    <inkscape:grid
       type="xygrid"
       id="grid4948"
       empspacing="5"
       visible="true"
       enabled="true"
       snapvisiblegridlinesonly="true" />
  </sodipodi:namedview>
  <metadata
     id="metadata4945">
    <rdf:RDF>
      <cc:Work
         rdf:about="">
        <dc:format>image/svg+xml</dc:format>
        <dc:type
           rdf:resource="http://purl.org/dc/dcmitype/StillImage" />
        <dc:title></dc:title>
      </cc:Work>
    </rdf:RDF>
  </metadata>
  <g
     inkscape:label="Layer 1"
     inkscape:groupmode="layer"
     id="layer1">
    <path
       style="color:#000000;fill:none;stroke:#000000;stroke-width:5.492;stroke-linecap:butt;stroke-linejoin:miter;stroke-miterlimit:4;stroke-opacity:1;stroke-dasharray:none;stroke-dashoffset:0;marker:none;marker-start:url(#Arrow2Mstart);marker-mid:url(#StopL);marker-end:url(#Arrow2Mend);visibility:visible;display:inline;overflow:visible;enable-background:accumulate"
       d="m -400,52.362183 155,0 155,0 155,0 155,0 155,0 155,0 155,0 155,0"
       id="path4950"
       inkscape:connector-curvature="0"
       sodipodi:nodetypes="ccccccccc" />
    <path
       sodipodi:type="arc"
       style="fill:#000000;stroke:#000000;stroke-width:7;stroke-linecap:butt;stroke-linejoin:round;stroke-miterlimit:4;stroke-opacity:1;stroke-dasharray:none;stroke-dashoffset:0"
       id="path6148"
       sodipodi:cx="-270"
       sodipodi:cy="42.362183"
       sodipodi:rx="30"
       sodipodi:ry="30"
       d="m -240,42.362183 a 30,30 0 1 1 -60,0 30,30 0 1 1 60,0 z"
       transform="matrix(0.96875,0,0,0.96875,16.5625,11.323818)" />
    <path
       transform="matrix(0.96875,0,0,0.96875,171.5625,11.323818)"
       d="m -240,42.362183 a 30,30 0 1 1 -60,0 30,30 0 1 1 60,0 z"
       sodipodi:ry="30"
       sodipodi:rx="30"
       sodipodi:cy="42.362183"
       sodipodi:cx="-270"
       id="path6150"
       style="fill:#000000;stroke:#000000;stroke-width:7;stroke-linecap:butt;stroke-linejoin:round;stroke-miterlimit:4;stroke-opacity:1;stroke-dasharray:none;stroke-dashoffset:0"
       sodipodi:type="arc" />
    <path
       sodipodi:type="arc"
       style="fill:#000000;stroke:#000000;stroke-width:7;stroke-linecap:butt;stroke-linejoin:round;stroke-miterlimit:4;stroke-opacity:1;stroke-dasharray:none;stroke-dashoffset:0"
       id="path6152"
       sodipodi:cx="-270"
       sodipodi:cy="42.362183"
       sodipodi:rx="30"
       sodipodi:ry="30"
       d="m -240,42.362183 a 30,30 0 1 1 -60,0 30,30 0 1 1 60,0 z"
       transform="matrix(0.96875,0,0,0.96875,326.5625,11.323818)" />
    <path
       transform="matrix(0.96875,0,0,0.96875,481.5625,11.323818)"
       d="m -240,42.362183 a 30,30 0 1 1 -60,0 30,30 0 1 1 60,0 z"
       sodipodi:ry="30"
       sodipodi:rx="30"
       sodipodi:cy="42.362183"
       sodipodi:cx="-270"
       id="path6154"
       style="fill:none;stroke:#000000;stroke-width:7;stroke-linecap:butt;stroke-linejoin:round;stroke-miterlimit:4;stroke-opacity:1;stroke-dasharray:none;stroke-dashoffset:0"
       sodipodi:type="arc" />
    <path
       sodipodi:type="arc"
       style="fill:none;stroke:#000000;stroke-width:7;stroke-linecap:butt;stroke-linejoin:round;stroke-miterlimit:4;stroke-opacity:1;stroke-dasharray:none;stroke-dashoffset:0"
       id="path6156"
       sodipodi:cx="-270"
       sodipodi:cy="42.362183"
       sodipodi:rx="30"
       sodipodi:ry="30"
       d="m -240,42.362183 a 30,30 0 1 1 -60,0 30,30 0 1 1 60,0 z"
       transform="matrix(0.96875,0,0,0.96875,636.5625,11.323818)" />
    <path
       transform="matrix(0.96875,0,0,0.96875,791.5625,11.323818)"
       d="m -240,42.362183 a 30,30 0 1 1 -60,0 30,30 0 1 1 60,0 z"
       sodipodi:ry="30"
       sodipodi:rx="30"
       sodipodi:cy="42.362183"
       sodipodi:cx="-270"
       id="path6158"
       style="fill:none;stroke:#000000;stroke-width:7;stroke-linecap:butt;stroke-linejoin:round;stroke-miterlimit:4;stroke-opacity:1;stroke-dasharray:none;stroke-dashoffset:0"
       sodipodi:type="arc" />
    <path
       sodipodi:type="arc"
       style="fill:none;stroke:#000000;stroke-width:7;stroke-linecap:butt;stroke-linejoin:round;stroke-miterlimit:4;stroke-opacity:1;stroke-dasharray:none;stroke-dashoffset:0"
       id="path6160"
       sodipodi:cx="-270"
       sodipodi:cy="42.362183"
       sodipodi:rx="30"
       sodipodi:ry="30"
       d="m -240,42.362183 a 30,30 0 1 1 -60,0 30,30 0 1 1 60,0 z"
       transform="matrix(0.96875,0,0,0.96875,946.5625,11.323818)" />
  </g>
</svg>
