<?xml version="1.0" encoding="UTF-8" standalone="no"?>
<!-- Created with Inkscape (http://www.inkscape.org/) -->

<svg
   xmlns:dc="http://purl.org/dc/elements/1.1/"
   xmlns:cc="http://creativecommons.org/ns#"
   xmlns:rdf="http://www.w3.org/1999/02/22-rdf-syntax-ns#"
   xmlns:svg="http://www.w3.org/2000/svg"
   xmlns="http://www.w3.org/2000/svg"
   xmlns:sodipodi="http://sodipodi.sourceforge.net/DTD/sodipodi-0.dtd"
   xmlns:inkscape="http://www.inkscape.org/namespaces/inkscape"
   width="812.18896"
   height="812.18896"
   id="svg2"
   version="1.1"
   inkscape:version="0.48.2 r9819"
   sodipodi:docname="New document 1">
  <defs
     id="defs4">
    <marker
       inkscape:stockid="Arrow2Mstart"
       orient="auto"
       refY="0"
       refX="0"
       id="Arrow2Mstart"
       style="overflow:visible">
      <path
         id="path3784"
         style="font-size:12px;fill-rule:evenodd;stroke-width:0.625;stroke-linejoin:round"
         d="M 8.7185878,4.0337352 -2.2072895,0.01601326 8.7185884,-4.0017078 c -1.7454984,2.3720609 -1.7354408,5.6174519 -6e-7,8.035443 z"
         transform="scale(0.6,0.6)"
         inkscape:connector-curvature="0" />
    </marker>
    <marker
       inkscape:stockid="Arrow2Mend"
       orient="auto"
       refY="0"
       refX="0"
       id="Arrow2Mend"
       style="overflow:visible">
      <path
         id="path3787"
         style="font-size:12px;fill-rule:evenodd;stroke-width:0.625;stroke-linejoin:round"
         d="M 8.7185878,4.0337352 -2.2072895,0.01601326 8.7185884,-4.0017078 c -1.7454984,2.3720609 -1.7354408,5.6174519 -6e-7,8.035443 z"
         transform="scale(-0.6,-0.6)"
         inkscape:connector-curvature="0" />
    </marker>
    <marker
       inkscape:stockid="Arrow1Lend"
       orient="auto"
       refY="0"
       refX="0"
       id="Arrow1Lend"
       style="overflow:visible">
      <path
         id="path3763"
         d="M 0,0 5,-5 -12.5,0 5,5 0,0 z"
         style="fill-rule:evenodd;stroke:#000000;stroke-width:1pt;marker-start:none"
         transform="matrix(-0.8,0,0,-0.8,-10,0)"
         inkscape:connector-curvature="0" />
    </marker>
  </defs>
  <sodipodi:namedview
     id="base"
     pagecolor="#ffffff"
     bordercolor="#666666"
     borderopacity="1.0"
     inkscape:pageopacity="0.0"
     inkscape:pageshadow="2"
     inkscape:zoom="0.49497475"
     inkscape:cx="252.1111"
     inkscape:cy="475.47278"
     inkscape:document-units="px"
     inkscape:current-layer="layer1"
     showgrid="true"
     fit-margin-top="0"
     fit-margin-left="0"
     fit-margin-right="0"
     fit-margin-bottom="0"
     inkscape:window-width="1233"
     inkscape:window-height="744"
     inkscape:window-x="167"
     inkscape:window-y="51"
     inkscape:window-maximized="0">
    <inkscape:grid
       type="xygrid"
       id="grid2985"
       empspacing="5"
       visible="true"
       enabled="true"
       snapvisiblegridlinesonly="true" />
  </sodipodi:namedview>
  <metadata
     id="metadata7">
    <rdf:RDF>
      <cc:Work
         rdf:about="">
        <dc:format>image/svg+xml</dc:format>
        <dc:type
           rdf:resource="http://purl.org/dc/dcmitype/StillImage" />
        <dc:title></dc:title>
      </cc:Work>
    </rdf:RDF>
  </metadata>
  <g
     inkscape:label="Layer 1"
     inkscape:groupmode="layer"
     id="layer1"
     transform="translate(566.09449,-46.26769)">
    <path
       style="color:#000000;fill:none;stroke:#000000;stroke-width:4.60178995;stroke-linecap:butt;stroke-linejoin:miter;stroke-miterlimit:4;stroke-opacity:1;stroke-dasharray:none;stroke-dashoffset:0;marker:none;marker-start:url(#Arrow2Mstart);marker-end:url(#Arrow2Mend);visibility:visible;display:inline;overflow:visible;enable-background:accumulate"
       d="m -560,212.36218 800,0"
       id="path2987"
       inkscape:connector-curvature="0" />
    <path
       inkscape:connector-curvature="0"
       id="path4759"
       d="m -560,292.36218 800,0"
       style="color:#000000;fill:none;stroke:#000000;stroke-width:4.60178995;stroke-linecap:butt;stroke-linejoin:miter;stroke-miterlimit:4;stroke-opacity:1;stroke-dasharray:none;stroke-dashoffset:0;marker:none;marker-start:url(#Arrow2Mstart);marker-end:url(#Arrow2Mend);visibility:visible;display:inline;overflow:visible;enable-background:accumulate" />
    <path
       style="color:#000000;fill:none;stroke:#000000;stroke-width:4.60178995;stroke-linecap:butt;stroke-linejoin:miter;stroke-miterlimit:4;stroke-opacity:1;stroke-dasharray:none;stroke-dashoffset:0;marker:none;marker-start:url(#Arrow2Mstart);marker-end:url(#Arrow2Mend);visibility:visible;display:inline;overflow:visible;enable-background:accumulate"
       d="m -560,372.36218 800,0"
       id="path4761"
       inkscape:connector-curvature="0" />
    <path
       inkscape:connector-curvature="0"
       id="path4763"
       d="m -560,452.36218 800,0"
       style="color:#000000;fill:none;stroke:#000000;stroke-width:4.60178995;stroke-linecap:butt;stroke-linejoin:miter;stroke-miterlimit:4;stroke-opacity:1;stroke-dasharray:none;stroke-dashoffset:0;marker:none;marker-start:url(#Arrow2Mstart);marker-end:url(#Arrow2Mend);visibility:visible;display:inline;overflow:visible;enable-background:accumulate" />
    <path
       style="color:#000000;fill:none;stroke:#000000;stroke-width:4.60178995;stroke-linecap:butt;stroke-linejoin:miter;stroke-miterlimit:4;stroke-opacity:1;stroke-dasharray:none;stroke-dashoffset:0;marker:none;marker-start:url(#Arrow2Mstart);marker-end:url(#Arrow2Mend);visibility:visible;display:inline;overflow:visible;enable-background:accumulate"
       d="m -560,532.36218 800,0"
       id="path4765"
       inkscape:connector-curvature="0" />
    <path
       inkscape:connector-curvature="0"
       id="path4767"
       d="m -560,612.36218 800,0"
       style="color:#000000;fill:none;stroke:#000000;stroke-width:4.60178995;stroke-linecap:butt;stroke-linejoin:miter;stroke-miterlimit:4;stroke-opacity:1;stroke-dasharray:none;stroke-dashoffset:0;marker:none;marker-start:url(#Arrow2Mstart);marker-end:url(#Arrow2Mend);visibility:visible;display:inline;overflow:visible;enable-background:accumulate" />
    <path
       style="color:#000000;fill:none;stroke:#000000;stroke-width:4.60178995;stroke-linecap:butt;stroke-linejoin:miter;stroke-miterlimit:4;stroke-opacity:1;stroke-dasharray:none;stroke-dashoffset:0;marker:none;marker-start:url(#Arrow2Mstart);marker-end:url(#Arrow2Mend);visibility:visible;display:inline;overflow:visible;enable-background:accumulate"
       d="m -560,692.36218 800,0"
       id="path4769"
       inkscape:connector-curvature="0" />
    <path
       inkscape:connector-curvature="0"
       id="path4771"
       d="m -400,852.36218 0,-800"
       style="color:#000000;fill:none;stroke:#000000;stroke-width:4.60178995;stroke-linecap:butt;stroke-linejoin:miter;stroke-miterlimit:4;stroke-opacity:1;stroke-dasharray:none;stroke-dashoffset:0;marker:none;marker-start:url(#Arrow2Mstart);marker-end:url(#Arrow2Mend);visibility:visible;display:inline;overflow:visible;enable-background:accumulate" />
    <path
       style="color:#000000;fill:none;stroke:#000000;stroke-width:4.60178995;stroke-linecap:butt;stroke-linejoin:miter;stroke-miterlimit:4;stroke-opacity:1;stroke-dasharray:none;stroke-dashoffset:0;marker:none;marker-start:url(#Arrow2Mstart);marker-end:url(#Arrow2Mend);visibility:visible;display:inline;overflow:visible;enable-background:accumulate"
       d="m -320,852.36218 0,-800"
       id="path4773"
       inkscape:connector-curvature="0" />
    <path
       inkscape:connector-curvature="0"
       id="path4775"
       d="m -240,852.36218 0,-800"
       style="color:#000000;fill:none;stroke:#000000;stroke-width:4.60178995;stroke-linecap:butt;stroke-linejoin:miter;stroke-miterlimit:4;stroke-opacity:1;stroke-dasharray:none;stroke-dashoffset:0;marker:none;marker-start:url(#Arrow2Mstart);marker-end:url(#Arrow2Mend);visibility:visible;display:inline;overflow:visible;enable-background:accumulate" />
    <path
       style="color:#000000;fill:none;stroke:#000000;stroke-width:4.60178995;stroke-linecap:butt;stroke-linejoin:miter;stroke-miterlimit:4;stroke-opacity:1;stroke-dasharray:none;stroke-dashoffset:0;marker:none;marker-start:url(#Arrow2Mstart);marker-end:url(#Arrow2Mend);visibility:visible;display:inline;overflow:visible;enable-background:accumulate"
       d="m -160,852.36218 0,-800"
       id="path4777"
       inkscape:connector-curvature="0" />
    <path
       inkscape:connector-curvature="0"
       id="path4779"
       d="m -80,852.36218 0,-800"
       style="color:#000000;fill:none;stroke:#000000;stroke-width:4.60178995;stroke-linecap:butt;stroke-linejoin:miter;stroke-miterlimit:4;stroke-opacity:1;stroke-dasharray:none;stroke-dashoffset:0;marker:none;marker-start:url(#Arrow2Mstart);marker-end:url(#Arrow2Mend);visibility:visible;display:inline;overflow:visible;enable-background:accumulate" />
    <path
       style="color:#000000;fill:none;stroke:#000000;stroke-width:4.60178995;stroke-linecap:butt;stroke-linejoin:miter;stroke-miterlimit:4;stroke-opacity:1;stroke-dasharray:none;stroke-dashoffset:0;marker:none;marker-start:url(#Arrow2Mstart);marker-end:url(#Arrow2Mend);visibility:visible;display:inline;overflow:visible;enable-background:accumulate"
       d="m 0,852.36218 0,-800"
       id="path4781"
       inkscape:connector-curvature="0" />
    <path
       inkscape:connector-curvature="0"
       id="path4783"
       d="m 80,852.36218 0,-800"
       style="color:#000000;fill:none;stroke:#000000;stroke-width:4.60178995;stroke-linecap:butt;stroke-linejoin:miter;stroke-miterlimit:4;stroke-opacity:1;stroke-dasharray:none;stroke-dashoffset:0;marker:none;marker-start:url(#Arrow2Mstart);marker-end:url(#Arrow2Mend);visibility:visible;display:inline;overflow:visible;enable-background:accumulate" />
    <path
       sodipodi:type="arc"
       style="fill:#000000;fill-opacity:1;stroke:#000000;stroke-width:14;stroke-linecap:butt;stroke-linejoin:round;stroke-miterlimit:4;stroke-opacity:1;stroke-dasharray:none;stroke-dashoffset:0"
       id="path4793"
       sodipodi:cx="-580"
       sodipodi:cy="132.36218"
       sodipodi:rx="40"
       sodipodi:ry="40"
       d="m -540,132.36218 c 0,22.09139 -17.90861,40 -40,40 -22.09139,0 -40,-17.90861 -40,-40 0,-22.09139 17.90861,-39.999997 40,-39.999997 22.09139,0 40,17.908607 40,39.999997 z"
       transform="matrix(0.5,0,0,0.5,-110,146.18109)" />
    <path
       transform="matrix(0.5,0,0,0.5,-30,146.18109)"
       d="m -540,132.36218 c 0,22.09139 -17.90861,40 -40,40 -22.09139,0 -40,-17.90861 -40,-40 0,-22.09139 17.90861,-39.999997 40,-39.999997 22.09139,0 40,17.908607 40,39.999997 z"
       sodipodi:ry="40"
       sodipodi:rx="40"
       sodipodi:cy="132.36218"
       sodipodi:cx="-580"
       id="path4795"
       style="fill:none;stroke:#000000;stroke-width:14;stroke-linecap:butt;stroke-linejoin:round;stroke-miterlimit:4;stroke-opacity:1;stroke-dasharray:none;stroke-dashoffset:0"
       sodipodi:type="arc" />
    <path
       sodipodi:type="arc"
       style="fill:none;stroke:#000000;stroke-width:14;stroke-linecap:butt;stroke-linejoin:round;stroke-miterlimit:4;stroke-opacity:1;stroke-dasharray:none;stroke-dashoffset:0"
       id="path4797"
       sodipodi:cx="-580"
       sodipodi:cy="132.36218"
       sodipodi:rx="40"
       sodipodi:ry="40"
       d="m -540,132.36218 c 0,22.09139 -17.90861,40 -40,40 -22.09139,0 -40,-17.90861 -40,-40 0,-22.09139 17.90861,-39.999997 40,-39.999997 22.09139,0 40,17.908607 40,39.999997 z"
       transform="matrix(0.5,0,0,0.5,50,146.18109)" />
    <path
       transform="matrix(0.5,0,0,0.5,130,146.18109)"
       d="m -540,132.36218 c 0,22.09139 -17.90861,40 -40,40 -22.09139,0 -40,-17.90861 -40,-40 0,-22.09139 17.90861,-39.999997 40,-39.999997 22.09139,0 40,17.908607 40,39.999997 z"
       sodipodi:ry="40"
       sodipodi:rx="40"
       sodipodi:cy="132.36218"
       sodipodi:cx="-580"
       id="path4799"
       style="fill:none;stroke:#000000;stroke-width:14;stroke-linecap:butt;stroke-linejoin:round;stroke-miterlimit:4;stroke-opacity:1;stroke-dasharray:none;stroke-dashoffset:0"
       sodipodi:type="arc" />
    <path
       sodipodi:type="arc"
       style="fill:#000000;fill-opacity:1;stroke:#000000;stroke-width:14;stroke-linecap:butt;stroke-linejoin:round;stroke-miterlimit:4;stroke-opacity:1;stroke-dasharray:none;stroke-dashoffset:0"
       id="path4801"
       sodipodi:cx="-580"
       sodipodi:cy="132.36218"
       sodipodi:rx="40"
       sodipodi:ry="40"
       d="m -540,132.36218 c 0,22.09139 -17.90861,40 -40,40 -22.09139,0 -40,-17.90861 -40,-40 0,-22.09139 17.90861,-39.999997 40,-39.999997 22.09139,0 40,17.908607 40,39.999997 z"
       transform="matrix(0.5,0,0,0.5,210,146.18109)" />
    <path
       transform="matrix(0.5,0,0,0.5,290,146.18109)"
       d="m -540,132.36218 c 0,22.09139 -17.90861,40 -40,40 -22.09139,0 -40,-17.90861 -40,-40 0,-22.09139 17.90861,-39.999997 40,-39.999997 22.09139,0 40,17.908607 40,39.999997 z"
       sodipodi:ry="40"
       sodipodi:rx="40"
       sodipodi:cy="132.36218"
       sodipodi:cx="-580"
       id="path4803"
       style="fill:none;stroke:#000000;stroke-width:14;stroke-linecap:butt;stroke-linejoin:round;stroke-miterlimit:4;stroke-opacity:1;stroke-dasharray:none;stroke-dashoffset:0"
       sodipodi:type="arc" />
    <path
       sodipodi:type="arc"
       style="fill:#000000;fill-opacity:1;stroke:#000000;stroke-width:14;stroke-linecap:butt;stroke-linejoin:round;stroke-miterlimit:4;stroke-opacity:1;stroke-dasharray:none;stroke-dashoffset:0"
       id="path4805"
       sodipodi:cx="-580"
       sodipodi:cy="132.36218"
       sodipodi:rx="40"
       sodipodi:ry="40"
       d="m -540,132.36218 c 0,22.09139 -17.90861,40 -40,40 -22.09139,0 -40,-17.90861 -40,-40 0,-22.09139 17.90861,-39.999997 40,-39.999997 22.09139,0 40,17.908607 40,39.999997 z"
       transform="matrix(0.5,0,0,0.5,370,146.18109)" />
    <path
       transform="matrix(0.5,0,0,0.5,370,226.18109)"
       d="m -540,132.36218 c 0,22.09139 -17.90861,40 -40,40 -22.09139,0 -40,-17.90861 -40,-40 0,-22.09139 17.90861,-39.999997 40,-39.999997 22.09139,0 40,17.908607 40,39.999997 z"
       sodipodi:ry="40"
       sodipodi:rx="40"
       sodipodi:cy="132.36218"
       sodipodi:cx="-580"
       id="path4807"
       style="fill:none;stroke:#000000;stroke-width:14;stroke-linecap:butt;stroke-linejoin:round;stroke-miterlimit:4;stroke-opacity:1;stroke-dasharray:none;stroke-dashoffset:0"
       sodipodi:type="arc" />
    <path
       sodipodi:type="arc"
       style="fill:#000000;fill-opacity:1;stroke:#000000;stroke-width:14;stroke-linecap:butt;stroke-linejoin:round;stroke-miterlimit:4;stroke-opacity:1;stroke-dasharray:none;stroke-dashoffset:0"
       id="path4809"
       sodipodi:cx="-580"
       sodipodi:cy="132.36218"
       sodipodi:rx="40"
       sodipodi:ry="40"
       d="m -540,132.36218 c 0,22.09139 -17.90861,40 -40,40 -22.09139,0 -40,-17.90861 -40,-40 0,-22.09139 17.90861,-39.999997 40,-39.999997 22.09139,0 40,17.908607 40,39.999997 z"
       transform="matrix(0.5,0,0,0.5,290,226.18109)" />
    <path
       transform="matrix(0.5,0,0,0.5,210,226.18109)"
       d="m -540,132.36218 c 0,22.09139 -17.90861,40 -40,40 -22.09139,0 -40,-17.90861 -40,-40 0,-22.09139 17.90861,-39.999997 40,-39.999997 22.09139,0 40,17.908607 40,39.999997 z"
       sodipodi:ry="40"
       sodipodi:rx="40"
       sodipodi:cy="132.36218"
       sodipodi:cx="-580"
       id="path4811"
       style="fill:none;stroke:#000000;stroke-width:14;stroke-linecap:butt;stroke-linejoin:round;stroke-miterlimit:4;stroke-opacity:1;stroke-dasharray:none;stroke-dashoffset:0"
       sodipodi:type="arc" />
    <path
       sodipodi:type="arc"
       style="fill:none;stroke:#000000;stroke-width:14;stroke-linecap:butt;stroke-linejoin:round;stroke-miterlimit:4;stroke-opacity:1;stroke-dasharray:none;stroke-dashoffset:0"
       id="path4813"
       sodipodi:cx="-580"
       sodipodi:cy="132.36218"
       sodipodi:rx="40"
       sodipodi:ry="40"
       d="m -540,132.36218 c 0,22.09139 -17.90861,40 -40,40 -22.09139,0 -40,-17.90861 -40,-40 0,-22.09139 17.90861,-39.999997 40,-39.999997 22.09139,0 40,17.908607 40,39.999997 z"
       transform="matrix(0.5,0,0,0.5,130,226.18109)" />
    <path
       transform="matrix(0.5,0,0,0.5,50,226.18109)"
       d="m -540,132.36218 c 0,22.09139 -17.90861,40 -40,40 -22.09139,0 -40,-17.90861 -40,-40 0,-22.09139 17.90861,-39.999997 40,-39.999997 22.09139,0 40,17.908607 40,39.999997 z"
       sodipodi:ry="40"
       sodipodi:rx="40"
       sodipodi:cy="132.36218"
       sodipodi:cx="-580"
       id="path4815"
       style="fill:#000000;fill-opacity:1;stroke:#000000;stroke-width:14;stroke-linecap:butt;stroke-linejoin:round;stroke-miterlimit:4;stroke-opacity:1;stroke-dasharray:none;stroke-dashoffset:0"
       sodipodi:type="arc" />
    <path
       sodipodi:type="arc"
       style="fill:#000000;fill-opacity:1;stroke:#000000;stroke-width:14;stroke-linecap:butt;stroke-linejoin:round;stroke-miterlimit:4;stroke-opacity:1;stroke-dasharray:none;stroke-dashoffset:0"
       id="path4817"
       sodipodi:cx="-580"
       sodipodi:cy="132.36218"
       sodipodi:rx="40"
       sodipodi:ry="40"
       d="m -540,132.36218 c 0,22.09139 -17.90861,40 -40,40 -22.09139,0 -40,-17.90861 -40,-40 0,-22.09139 17.90861,-39.999997 40,-39.999997 22.09139,0 40,17.908607 40,39.999997 z"
       transform="matrix(0.5,0,0,0.5,-30,226.18109)" />
    <path
       transform="matrix(0.5,0,0,0.5,-110,226.18109)"
       d="m -540,132.36218 c 0,22.09139 -17.90861,40 -40,40 -22.09139,0 -40,-17.90861 -40,-40 0,-22.09139 17.90861,-39.999997 40,-39.999997 22.09139,0 40,17.908607 40,39.999997 z"
       sodipodi:ry="40"
       sodipodi:rx="40"
       sodipodi:cy="132.36218"
       sodipodi:cx="-580"
       id="path4819"
       style="fill:none;stroke:#000000;stroke-width:14;stroke-linecap:butt;stroke-linejoin:round;stroke-miterlimit:4;stroke-opacity:1;stroke-dasharray:none;stroke-dashoffset:0"
       sodipodi:type="arc" />
    <path
       sodipodi:type="arc"
       style="fill:none;stroke:#000000;stroke-width:14;stroke-linecap:butt;stroke-linejoin:round;stroke-miterlimit:4;stroke-opacity:1;stroke-dasharray:none;stroke-dashoffset:0"
       id="path4821"
       sodipodi:cx="-580"
       sodipodi:cy="132.36218"
       sodipodi:rx="40"
       sodipodi:ry="40"
       d="m -540,132.36218 c 0,22.09139 -17.90861,40 -40,40 -22.09139,0 -40,-17.90861 -40,-40 0,-22.09139 17.90861,-39.999997 40,-39.999997 22.09139,0 40,17.908607 40,39.999997 z"
       transform="matrix(0.5,0,0,0.5,-110,306.18109)" />
    <path
       transform="matrix(0.5,0,0,0.5,-30,306.18109)"
       d="m -540,132.36218 c 0,22.09139 -17.90861,40 -40,40 -22.09139,0 -40,-17.90861 -40,-40 0,-22.09139 17.90861,-39.999997 40,-39.999997 22.09139,0 40,17.908607 40,39.999997 z"
       sodipodi:ry="40"
       sodipodi:rx="40"
       sodipodi:cy="132.36218"
       sodipodi:cx="-580"
       id="path4823"
       style="fill:none;stroke:#000000;stroke-width:14;stroke-linecap:butt;stroke-linejoin:round;stroke-miterlimit:4;stroke-opacity:1;stroke-dasharray:none;stroke-dashoffset:0"
       sodipodi:type="arc" />
    <path
       sodipodi:type="arc"
       style="fill:#000000;fill-opacity:1;stroke:#000000;stroke-width:14;stroke-linecap:butt;stroke-linejoin:round;stroke-miterlimit:4;stroke-opacity:1;stroke-dasharray:none;stroke-dashoffset:0"
       id="path4825"
       sodipodi:cx="-580"
       sodipodi:cy="132.36218"
       sodipodi:rx="40"
       sodipodi:ry="40"
       d="m -540,132.36218 c 0,22.09139 -17.90861,40 -40,40 -22.09139,0 -40,-17.90861 -40,-40 0,-22.09139 17.90861,-39.999997 40,-39.999997 22.09139,0 40,17.908607 40,39.999997 z"
       transform="matrix(0.5,0,0,0.5,50,306.18109)" />
    <path
       transform="matrix(0.5,0,0,0.5,130,306.18109)"
       d="m -540,132.36218 c 0,22.09139 -17.90861,40 -40,40 -22.09139,0 -40,-17.90861 -40,-40 0,-22.09139 17.90861,-39.999997 40,-39.999997 22.09139,0 40,17.908607 40,39.999997 z"
       sodipodi:ry="40"
       sodipodi:rx="40"
       sodipodi:cy="132.36218"
       sodipodi:cx="-580"
       id="path4827"
       style="fill:none;stroke:#000000;stroke-width:14;stroke-linecap:butt;stroke-linejoin:round;stroke-miterlimit:4;stroke-opacity:1;stroke-dasharray:none;stroke-dashoffset:0"
       sodipodi:type="arc" />
    <path
       sodipodi:type="arc"
       style="fill:none;stroke:#000000;stroke-width:14;stroke-linecap:butt;stroke-linejoin:round;stroke-miterlimit:4;stroke-opacity:1;stroke-dasharray:none;stroke-dashoffset:0"
       id="path4829"
       sodipodi:cx="-580"
       sodipodi:cy="132.36218"
       sodipodi:rx="40"
       sodipodi:ry="40"
       d="m -540,132.36218 c 0,22.09139 -17.90861,40 -40,40 -22.09139,0 -40,-17.90861 -40,-40 0,-22.09139 17.90861,-39.999997 40,-39.999997 22.09139,0 40,17.908607 40,39.999997 z"
       transform="matrix(0.5,0,0,0.5,210,306.18109)" />
    <path
       transform="matrix(0.5,0,0,0.5,290,306.18109)"
       d="m -540,132.36218 c 0,22.09139 -17.90861,40 -40,40 -22.09139,0 -40,-17.90861 -40,-40 0,-22.09139 17.90861,-39.999997 40,-39.999997 22.09139,0 40,17.908607 40,39.999997 z"
       sodipodi:ry="40"
       sodipodi:rx="40"
       sodipodi:cy="132.36218"
       sodipodi:cx="-580"
       id="path4831"
       style="fill:none;stroke:#000000;stroke-width:14;stroke-linecap:butt;stroke-linejoin:round;stroke-miterlimit:4;stroke-opacity:1;stroke-dasharray:none;stroke-dashoffset:0"
       sodipodi:type="arc" />
    <path
       sodipodi:type="arc"
       style="fill:none;stroke:#000000;stroke-width:14;stroke-linecap:butt;stroke-linejoin:round;stroke-miterlimit:4;stroke-opacity:1;stroke-dasharray:none;stroke-dashoffset:0"
       id="path4833"
       sodipodi:cx="-580"
       sodipodi:cy="132.36218"
       sodipodi:rx="40"
       sodipodi:ry="40"
       d="m -540,132.36218 c 0,22.09139 -17.90861,40 -40,40 -22.09139,0 -40,-17.90861 -40,-40 0,-22.09139 17.90861,-39.999997 40,-39.999997 22.09139,0 40,17.908607 40,39.999997 z"
       transform="matrix(0.5,0,0,0.5,370,306.18109)" />
    <path
       transform="matrix(0.5,0,0,0.5,370,306.18109)"
       d="m -540,132.36218 c 0,22.09139 -17.90861,40 -40,40 -22.09139,0 -40,-17.90861 -40,-40 0,-22.09139 17.90861,-39.999997 40,-39.999997 22.09139,0 40,17.908607 40,39.999997 z"
       sodipodi:ry="40"
       sodipodi:rx="40"
       sodipodi:cy="132.36218"
       sodipodi:cx="-580"
       id="path4835"
       style="fill:none;stroke:#000000;stroke-width:14;stroke-linecap:butt;stroke-linejoin:round;stroke-miterlimit:4;stroke-opacity:1;stroke-dasharray:none;stroke-dashoffset:0"
       sodipodi:type="arc" />
    <path
       transform="matrix(0.5,0,0,0.5,-110,386.18109)"
       d="m -540,132.36218 c 0,22.09139 -17.90861,40 -40,40 -22.09139,0 -40,-17.90861 -40,-40 0,-22.09139 17.90861,-39.999997 40,-39.999997 22.09139,0 40,17.908607 40,39.999997 z"
       sodipodi:ry="40"
       sodipodi:rx="40"
       sodipodi:cy="132.36218"
       sodipodi:cx="-580"
       id="path4837"
       style="fill:none;stroke:#000000;stroke-width:14;stroke-linecap:butt;stroke-linejoin:round;stroke-miterlimit:4;stroke-opacity:1;stroke-dasharray:none;stroke-dashoffset:0"
       sodipodi:type="arc" />
    <path
       sodipodi:type="arc"
       style="fill:#000000;fill-opacity:1;stroke:#000000;stroke-width:14;stroke-linecap:butt;stroke-linejoin:round;stroke-miterlimit:4;stroke-opacity:1;stroke-dasharray:none;stroke-dashoffset:0"
       id="path4839"
       sodipodi:cx="-580"
       sodipodi:cy="132.36218"
       sodipodi:rx="40"
       sodipodi:ry="40"
       d="m -540,132.36218 c 0,22.09139 -17.90861,40 -40,40 -22.09139,0 -40,-17.90861 -40,-40 0,-22.09139 17.90861,-39.999997 40,-39.999997 22.09139,0 40,17.908607 40,39.999997 z"
       transform="matrix(0.5,0,0,0.5,-30,386.18109)" />
    <path
       transform="matrix(0.5,0,0,0.5,50,386.18109)"
       d="m -540,132.36218 c 0,22.09139 -17.90861,40 -40,40 -22.09139,0 -40,-17.90861 -40,-40 0,-22.09139 17.90861,-39.999997 40,-39.999997 22.09139,0 40,17.908607 40,39.999997 z"
       sodipodi:ry="40"
       sodipodi:rx="40"
       sodipodi:cy="132.36218"
       sodipodi:cx="-580"
       id="path4841"
       style="fill:none;stroke:#000000;stroke-width:14;stroke-linecap:butt;stroke-linejoin:round;stroke-miterlimit:4;stroke-opacity:1;stroke-dasharray:none;stroke-dashoffset:0"
       sodipodi:type="arc" />
    <path
       sodipodi:type="arc"
       style="fill:none;stroke:#000000;stroke-width:14;stroke-linecap:butt;stroke-linejoin:round;stroke-miterlimit:4;stroke-opacity:1;stroke-dasharray:none;stroke-dashoffset:0"
       id="path4843"
       sodipodi:cx="-580"
       sodipodi:cy="132.36218"
       sodipodi:rx="40"
       sodipodi:ry="40"
       d="m -540,132.36218 c 0,22.09139 -17.90861,40 -40,40 -22.09139,0 -40,-17.90861 -40,-40 0,-22.09139 17.90861,-39.999997 40,-39.999997 22.09139,0 40,17.908607 40,39.999997 z"
       transform="matrix(0.5,0,0,0.5,130,386.18109)" />
    <path
       transform="matrix(0.5,0,0,0.5,210,386.18109)"
       d="m -540,132.36218 c 0,22.09139 -17.90861,40 -40,40 -22.09139,0 -40,-17.90861 -40,-40 0,-22.09139 17.90861,-39.999997 40,-39.999997 22.09139,0 40,17.908607 40,39.999997 z"
       sodipodi:ry="40"
       sodipodi:rx="40"
       sodipodi:cy="132.36218"
       sodipodi:cx="-580"
       id="path4845"
       style="fill:#000000;fill-opacity:1;stroke:#000000;stroke-width:14;stroke-linecap:butt;stroke-linejoin:round;stroke-miterlimit:4;stroke-opacity:1;stroke-dasharray:none;stroke-dashoffset:0"
       sodipodi:type="arc" />
    <path
       sodipodi:type="arc"
       style="fill:none;stroke:#000000;stroke-width:14;stroke-linecap:butt;stroke-linejoin:round;stroke-miterlimit:4;stroke-opacity:1;stroke-dasharray:none;stroke-dashoffset:0"
       id="path4847"
       sodipodi:cx="-580"
       sodipodi:cy="132.36218"
       sodipodi:rx="40"
       sodipodi:ry="40"
       d="m -540,132.36218 c 0,22.09139 -17.90861,40 -40,40 -22.09139,0 -40,-17.90861 -40,-40 0,-22.09139 17.90861,-39.999997 40,-39.999997 22.09139,0 40,17.908607 40,39.999997 z"
       transform="matrix(0.5,0,0,0.5,290,386.18109)" />
    <path
       transform="matrix(0.5,0,0,0.5,370,386.18109)"
       d="m -540,132.36218 c 0,22.09139 -17.90861,40 -40,40 -22.09139,0 -40,-17.90861 -40,-40 0,-22.09139 17.90861,-39.999997 40,-39.999997 22.09139,0 40,17.908607 40,39.999997 z"
       sodipodi:ry="40"
       sodipodi:rx="40"
       sodipodi:cy="132.36218"
       sodipodi:cx="-580"
       id="path4849"
       style="fill:none;stroke:#000000;stroke-width:14;stroke-linecap:butt;stroke-linejoin:round;stroke-miterlimit:4;stroke-opacity:1;stroke-dasharray:none;stroke-dashoffset:0"
       sodipodi:type="arc" />
    <path
       sodipodi:type="arc"
       style="fill:#000000;fill-opacity:1;stroke:#000000;stroke-width:14;stroke-linecap:butt;stroke-linejoin:round;stroke-miterlimit:4;stroke-opacity:1;stroke-dasharray:none;stroke-dashoffset:0"
       id="path4851"
       sodipodi:cx="-580"
       sodipodi:cy="132.36218"
       sodipodi:rx="40"
       sodipodi:ry="40"
       d="m -540,132.36218 c 0,22.09139 -17.90861,40 -40,40 -22.09139,0 -40,-17.90861 -40,-40 0,-22.09139 17.90861,-39.999997 40,-39.999997 22.09139,0 40,17.908607 40,39.999997 z"
       transform="matrix(0.5,0,0,0.5,370,466.18109)" />
    <path
       transform="matrix(0.5,0,0,0.5,290,466.18109)"
       d="m -540,132.36218 c 0,22.09139 -17.90861,40 -40,40 -22.09139,0 -40,-17.90861 -40,-40 0,-22.09139 17.90861,-39.999997 40,-39.999997 22.09139,0 40,17.908607 40,39.999997 z"
       sodipodi:ry="40"
       sodipodi:rx="40"
       sodipodi:cy="132.36218"
       sodipodi:cx="-580"
       id="path4853"
       style="fill:none;stroke:#000000;stroke-width:14;stroke-linecap:butt;stroke-linejoin:round;stroke-miterlimit:4;stroke-opacity:1;stroke-dasharray:none;stroke-dashoffset:0"
       sodipodi:type="arc" />
    <path
       sodipodi:type="arc"
       style="fill:none;stroke:#000000;stroke-width:14;stroke-linecap:butt;stroke-linejoin:round;stroke-miterlimit:4;stroke-opacity:1;stroke-dasharray:none;stroke-dashoffset:0"
       id="path4855"
       sodipodi:cx="-580"
       sodipodi:cy="132.36218"
       sodipodi:rx="40"
       sodipodi:ry="40"
       d="m -540,132.36218 c 0,22.09139 -17.90861,40 -40,40 -22.09139,0 -40,-17.90861 -40,-40 0,-22.09139 17.90861,-39.999997 40,-39.999997 22.09139,0 40,17.908607 40,39.999997 z"
       transform="matrix(0.5,0,0,0.5,210,466.18109)" />
    <path
       transform="matrix(0.5,0,0,0.5,130,466.18109)"
       d="m -540,132.36218 c 0,22.09139 -17.90861,40 -40,40 -22.09139,0 -40,-17.90861 -40,-40 0,-22.09139 17.90861,-39.999997 40,-39.999997 22.09139,0 40,17.908607 40,39.999997 z"
       sodipodi:ry="40"
       sodipodi:rx="40"
       sodipodi:cy="132.36218"
       sodipodi:cx="-580"
       id="path4857"
       style="fill:#000000;fill-opacity:1;stroke:#000000;stroke-width:14;stroke-linecap:butt;stroke-linejoin:round;stroke-miterlimit:4;stroke-opacity:1;stroke-dasharray:none;stroke-dashoffset:0"
       sodipodi:type="arc" />
    <path
       sodipodi:type="arc"
       style="fill:none;stroke:#000000;stroke-width:14;stroke-linecap:butt;stroke-linejoin:round;stroke-miterlimit:4;stroke-opacity:1;stroke-dasharray:none;stroke-dashoffset:0"
       id="path4859"
       sodipodi:cx="-580"
       sodipodi:cy="132.36218"
       sodipodi:rx="40"
       sodipodi:ry="40"
       d="m -540,132.36218 c 0,22.09139 -17.90861,40 -40,40 -22.09139,0 -40,-17.90861 -40,-40 0,-22.09139 17.90861,-39.999997 40,-39.999997 22.09139,0 40,17.908607 40,39.999997 z"
       transform="matrix(0.5,0,0,0.5,50,466.18109)" />
    <path
       transform="matrix(0.5,0,0,0.5,-30,466.18109)"
       d="m -540,132.36218 c 0,22.09139 -17.90861,40 -40,40 -22.09139,0 -40,-17.90861 -40,-40 0,-22.09139 17.90861,-39.999997 40,-39.999997 22.09139,0 40,17.908607 40,39.999997 z"
       sodipodi:ry="40"
       sodipodi:rx="40"
       sodipodi:cy="132.36218"
       sodipodi:cx="-580"
       id="path4861"
       style="fill:none;stroke:#000000;stroke-width:14;stroke-linecap:butt;stroke-linejoin:round;stroke-miterlimit:4;stroke-opacity:1;stroke-dasharray:none;stroke-dashoffset:0"
       sodipodi:type="arc" />
    <path
       sodipodi:type="arc"
       style="fill:none;stroke:#000000;stroke-width:14;stroke-linecap:butt;stroke-linejoin:round;stroke-miterlimit:4;stroke-opacity:1;stroke-dasharray:none;stroke-dashoffset:0"
       id="path4863"
       sodipodi:cx="-580"
       sodipodi:cy="132.36218"
       sodipodi:rx="40"
       sodipodi:ry="40"
       d="m -540,132.36218 c 0,22.09139 -17.90861,40 -40,40 -22.09139,0 -40,-17.90861 -40,-40 0,-22.09139 17.90861,-39.999997 40,-39.999997 22.09139,0 40,17.908607 40,39.999997 z"
       transform="matrix(0.5,0,0,0.5,-110,466.18109)" />
    <path
       transform="matrix(0.5,0,0,0.5,-110,546.18109)"
       d="m -540,132.36218 c 0,22.09139 -17.90861,40 -40,40 -22.09139,0 -40,-17.90861 -40,-40 0,-22.09139 17.90861,-39.999997 40,-39.999997 22.09139,0 40,17.908607 40,39.999997 z"
       sodipodi:ry="40"
       sodipodi:rx="40"
       sodipodi:cy="132.36218"
       sodipodi:cx="-580"
       id="path4865"
       style="fill:none;stroke:#000000;stroke-width:14;stroke-linecap:butt;stroke-linejoin:round;stroke-miterlimit:4;stroke-opacity:1;stroke-dasharray:none;stroke-dashoffset:0"
       sodipodi:type="arc" />
    <path
       sodipodi:type="arc"
       style="fill:#000000;fill-opacity:1;stroke:#000000;stroke-width:14;stroke-linecap:butt;stroke-linejoin:round;stroke-miterlimit:4;stroke-opacity:1;stroke-dasharray:none;stroke-dashoffset:0"
       id="path4867"
       sodipodi:cx="-580"
       sodipodi:cy="132.36218"
       sodipodi:rx="40"
       sodipodi:ry="40"
       d="m -540,132.36218 c 0,22.09139 -17.90861,40 -40,40 -22.09139,0 -40,-17.90861 -40,-40 0,-22.09139 17.90861,-39.999997 40,-39.999997 22.09139,0 40,17.908607 40,39.999997 z"
       transform="matrix(0.5,0,0,0.5,-30,546.18109)" />
    <path
       transform="matrix(0.5,0,0,0.5,50,546.18109)"
       d="m -540,132.36218 c 0,22.09139 -17.90861,40 -40,40 -22.09139,0 -40,-17.90861 -40,-40 0,-22.09139 17.90861,-39.999997 40,-39.999997 22.09139,0 40,17.908607 40,39.999997 z"
       sodipodi:ry="40"
       sodipodi:rx="40"
       sodipodi:cy="132.36218"
       sodipodi:cx="-580"
       id="path4869"
       style="fill:none;stroke:#000000;stroke-width:14;stroke-linecap:butt;stroke-linejoin:round;stroke-miterlimit:4;stroke-opacity:1;stroke-dasharray:none;stroke-dashoffset:0"
       sodipodi:type="arc" />
    <path
       sodipodi:type="arc"
       style="fill:none;stroke:#000000;stroke-width:14;stroke-linecap:butt;stroke-linejoin:round;stroke-miterlimit:4;stroke-opacity:1;stroke-dasharray:none;stroke-dashoffset:0"
       id="path4871"
       sodipodi:cx="-580"
       sodipodi:cy="132.36218"
       sodipodi:rx="40"
       sodipodi:ry="40"
       d="m -540,132.36218 c 0,22.09139 -17.90861,40 -40,40 -22.09139,0 -40,-17.90861 -40,-40 0,-22.09139 17.90861,-39.999997 40,-39.999997 22.09139,0 40,17.908607 40,39.999997 z"
       transform="matrix(0.5,0,0,0.5,130,546.18109)" />
    <path
       transform="matrix(0.5,0,0,0.5,210,546.18109)"
       d="m -540,132.36218 c 0,22.09139 -17.90861,40 -40,40 -22.09139,0 -40,-17.90861 -40,-40 0,-22.09139 17.90861,-39.999997 40,-39.999997 22.09139,0 40,17.908607 40,39.999997 z"
       sodipodi:ry="40"
       sodipodi:rx="40"
       sodipodi:cy="132.36218"
       sodipodi:cx="-580"
       id="path4873"
       style="fill:#000000;fill-opacity:1;stroke:#000000;stroke-width:14;stroke-linecap:butt;stroke-linejoin:round;stroke-miterlimit:4;stroke-opacity:1;stroke-dasharray:none;stroke-dashoffset:0"
       sodipodi:type="arc" />
    <path
       sodipodi:type="arc"
       style="fill:none;stroke:#000000;stroke-width:14;stroke-linecap:butt;stroke-linejoin:round;stroke-miterlimit:4;stroke-opacity:1;stroke-dasharray:none;stroke-dashoffset:0"
       id="path4875"
       sodipodi:cx="-580"
       sodipodi:cy="132.36218"
       sodipodi:rx="40"
       sodipodi:ry="40"
       d="m -540,132.36218 c 0,22.09139 -17.90861,40 -40,40 -22.09139,0 -40,-17.90861 -40,-40 0,-22.09139 17.90861,-39.999997 40,-39.999997 22.09139,0 40,17.908607 40,39.999997 z"
       transform="matrix(0.5,0,0,0.5,290,546.18109)" />
    <path
       transform="matrix(0.5,0,0,0.5,370,546.18109)"
       d="m -540,132.36218 c 0,22.09139 -17.90861,40 -40,40 -22.09139,0 -40,-17.90861 -40,-40 0,-22.09139 17.90861,-39.999997 40,-39.999997 22.09139,0 40,17.908607 40,39.999997 z"
       sodipodi:ry="40"
       sodipodi:rx="40"
       sodipodi:cy="132.36218"
       sodipodi:cx="-580"
       id="path4877"
       style="fill:none;stroke:#000000;stroke-width:14;stroke-linecap:butt;stroke-linejoin:round;stroke-miterlimit:4;stroke-opacity:1;stroke-dasharray:none;stroke-dashoffset:0"
       sodipodi:type="arc" />
    <path
       sodipodi:type="arc"
       style="fill:#000000;fill-opacity:1;stroke:#000000;stroke-width:14;stroke-linecap:butt;stroke-linejoin:round;stroke-miterlimit:4;stroke-opacity:1;stroke-dasharray:none;stroke-dashoffset:0"
       id="path4879"
       sodipodi:cx="-580"
       sodipodi:cy="132.36218"
       sodipodi:rx="40"
       sodipodi:ry="40"
       d="m -540,132.36218 c 0,22.09139 -17.90861,40 -40,40 -22.09139,0 -40,-17.90861 -40,-40 0,-22.09139 17.90861,-39.999997 40,-39.999997 22.09139,0 40,17.908607 40,39.999997 z"
       transform="matrix(0.5,0,0,0.5,-110,626.18109)" />
    <path
       transform="matrix(0.5,0,0,0.5,-30,626.18109)"
       d="m -540,132.36218 c 0,22.09139 -17.90861,40 -40,40 -22.09139,0 -40,-17.90861 -40,-40 0,-22.09139 17.90861,-39.999997 40,-39.999997 22.09139,0 40,17.908607 40,39.999997 z"
       sodipodi:ry="40"
       sodipodi:rx="40"
       sodipodi:cy="132.36218"
       sodipodi:cx="-580"
       id="path4881"
       style="fill:none;stroke:#000000;stroke-width:14;stroke-linecap:butt;stroke-linejoin:round;stroke-miterlimit:4;stroke-opacity:1;stroke-dasharray:none;stroke-dashoffset:0"
       sodipodi:type="arc" />
    <path
       sodipodi:type="arc"
       style="fill:none;stroke:#000000;stroke-width:14;stroke-linecap:butt;stroke-linejoin:round;stroke-miterlimit:4;stroke-opacity:1;stroke-dasharray:none;stroke-dashoffset:0"
       id="path4883"
       sodipodi:cx="-580"
       sodipodi:cy="132.36218"
       sodipodi:rx="40"
       sodipodi:ry="40"
       d="m -540,132.36218 c 0,22.09139 -17.90861,40 -40,40 -22.09139,0 -40,-17.90861 -40,-40 0,-22.09139 17.90861,-39.999997 40,-39.999997 22.09139,0 40,17.908607 40,39.999997 z"
       transform="matrix(0.5,0,0,0.5,50,626.18109)" />
    <path
       transform="matrix(0.5,0,0,0.5,130,626.18109)"
       d="m -540,132.36218 c 0,22.09139 -17.90861,40 -40,40 -22.09139,0 -40,-17.90861 -40,-40 0,-22.09139 17.90861,-39.999997 40,-39.999997 22.09139,0 40,17.908607 40,39.999997 z"
       sodipodi:ry="40"
       sodipodi:rx="40"
       sodipodi:cy="132.36218"
       sodipodi:cx="-580"
       id="path4885"
       style="fill:#000000;fill-opacity:1;stroke:#000000;stroke-width:14;stroke-linecap:butt;stroke-linejoin:round;stroke-miterlimit:4;stroke-opacity:1;stroke-dasharray:none;stroke-dashoffset:0"
       sodipodi:type="arc" />
    <path
       sodipodi:type="arc"
       style="fill:none;stroke:#000000;stroke-width:14;stroke-linecap:butt;stroke-linejoin:round;stroke-miterlimit:4;stroke-opacity:1;stroke-dasharray:none;stroke-dashoffset:0"
       id="path4887"
       sodipodi:cx="-580"
       sodipodi:cy="132.36218"
       sodipodi:rx="40"
       sodipodi:ry="40"
       d="m -540,132.36218 c 0,22.09139 -17.90861,40 -40,40 -22.09139,0 -40,-17.90861 -40,-40 0,-22.09139 17.90861,-39.999997 40,-39.999997 22.09139,0 40,17.908607 40,39.999997 z"
       transform="matrix(0.5,0,0,0.5,210,626.18109)" />
    <path
       transform="matrix(0.5,0,0,0.5,290,626.18109)"
       d="m -540,132.36218 c 0,22.09139 -17.90861,40 -40,40 -22.09139,0 -40,-17.90861 -40,-40 0,-22.09139 17.90861,-39.999997 40,-39.999997 22.09139,0 40,17.908607 40,39.999997 z"
       sodipodi:ry="40"
       sodipodi:rx="40"
       sodipodi:cy="132.36218"
       sodipodi:cx="-580"
       id="path4889"
       style="fill:#000000;fill-opacity:1;stroke:#000000;stroke-width:14;stroke-linecap:butt;stroke-linejoin:round;stroke-miterlimit:4;stroke-opacity:1;stroke-dasharray:none;stroke-dashoffset:0"
       sodipodi:type="arc" />
    <path
       sodipodi:type="arc"
       style="fill:none;stroke:#000000;stroke-width:14;stroke-linecap:butt;stroke-linejoin:round;stroke-miterlimit:4;stroke-opacity:1;stroke-dasharray:none;stroke-dashoffset:0"
       id="path4891"
       sodipodi:cx="-580"
       sodipodi:cy="132.36218"
       sodipodi:rx="40"
       sodipodi:ry="40"
       d="m -540,132.36218 c 0,22.09139 -17.90861,40 -40,40 -22.09139,0 -40,-17.90861 -40,-40 0,-22.09139 17.90861,-39.999997 40,-39.999997 22.09139,0 40,17.908607 40,39.999997 z"
       transform="matrix(0.5,0,0,0.5,370,626.18109)" />
  </g>
</svg>
